# xmcd CD database file
#
# Track frame offsets:
#	150
#	34798
#	69715
#	100996
#	135464
#	171387
#	192193
#
# Disc length: 2980 seconds
#
# Revision: 0
# Processed by: cddbd v1.5.1PL0 Copyright (c) Steve Scherf et al.
# Submitted via: CDex 1.51
#
DISCID=600ba207
DTITLE=Liam Sillery Quintet - Minor Changes
DYEAR=2005
DGENRE=Jazz
TTITLE0=Minor Change
TTITLE1=For Jane
TTITLE2=Terry's Blues
TTITLE3=Prana
TTITLE4=Cecil's Bridge
TTITLE5=You Are So Beautiful
TTITLE6=Dial D for Dial
EXTD=YEAR: 2005
EXTT0=
EXTT1=
EXTT2=
EXTT3=
EXTT4=
EXTT5=
EXTT6=
PLAYORDER=
